<svg xmlns="http://www.w3.org/2000/svg" width="566.962" height="608.134" viewBox="0 0 566.962 608.134">
  <g id="Grupo_246" data-name="Grupo 246" transform="translate(1 1)" opacity="0.23">
    <g id="Grupo_247" data-name="Grupo 247">
      <path id="Trazado_365" data-name="Trazado 365" d="M875.628,501.9a165.83,165.83,0,1,0,165.831,165.83A165.833,165.833,0,0,0,875.628,501.9Zm.02,307.06a141.239,141.239,0,1,1,141.239-141.24A141.231,141.231,0,0,1,875.648,808.961Z" transform="translate(-593.145 -385.238)" fill="none" stroke="#fff" stroke-miterlimit="10" stroke-width="2"/>
      <path id="Trazado_366" data-name="Trazado 366" d="M1237.183,708.277l-50.416-6.055a225.327,225.327,0,0,0-22.417-54.257l31.344-39.845a16.347,16.347,0,0,0-1.292-21.106l-51.95-51.975a16.4,16.4,0,0,0-21.111-1.287l-39.909,31.389a221.836,221.836,0,0,0-54.143-22.373l-6.035-50.42a16.373,16.373,0,0,0-15.818-14.011H931.945a16.328,16.328,0,0,0-15.793,14.011l-6.06,50.42A223.745,223.745,0,0,0,855.9,565.161l-39.889-31.344a16.377,16.377,0,0,0-21.086,1.267l-51.974,52a16.383,16.383,0,0,0-1.218,21.106l31.319,39.865a223.13,223.13,0,0,0-22.393,54.237l-50.4,6.035a16.352,16.352,0,0,0-14.036,15.818V797.63a16.369,16.369,0,0,0,14.036,15.8l50.415,6.055a224.632,224.632,0,0,0,22.4,54.148l-31.324,39.909a16.405,16.405,0,0,0,1.287,21.106l51.886,52a16.4,16.4,0,0,0,21.086,1.287l39.909-31.409a222.611,222.611,0,0,0,54.193,22.393l6.055,25.641a16.327,16.327,0,0,0,15.8,14.011h73.491a16.29,16.29,0,0,0,15.793-14.011l6.055-25.641a224.356,224.356,0,0,0,54.193-22.393l39.909,31.345A16.376,16.376,0,0,0,1142.5,986.6l51.954-52a16.376,16.376,0,0,0,1.262-21.131l-31.364-39.865a223.677,223.677,0,0,0,22.417-54.168l50.4-6.055a16.309,16.309,0,0,0,14.031-15.8V724.1A16.273,16.273,0,0,0,1237.183,708.277ZM968.715,948.227c-103.5,0-187.4-83.9-187.4-187.4s83.9-187.4,187.4-187.4,187.4,83.9,187.4,187.4S1072.209,948.227,968.715,948.227Z" transform="translate(-686.232 -478.337)" fill="none" stroke="#fff" stroke-miterlimit="10" stroke-width="2"/>
    </g>
    <g id="Grupo_248" data-name="Grupo 248" transform="translate(211.135 195.42)">
      <line id="Línea_5" data-name="Línea 5" y2="107.05" transform="translate(69.657)" fill="none" stroke="#fff" stroke-miterlimit="10" stroke-width="2"/>
      <line id="Línea_6" data-name="Línea 6" x1="72.854" transform="translate(0 104.151)" fill="none" stroke="#fff" stroke-miterlimit="10" stroke-width="2"/>
    </g>
    <path id="Rectángulo_561" data-name="Rectángulo 561" d="M4.511,0H98.3a4.511,4.511,0,0,1,4.511,4.511V52.006A7.511,7.511,0,0,1,95.3,59.516H7.511A7.511,7.511,0,0,1,0,52.006V4.511A4.511,4.511,0,0,1,4.511,0Z" transform="translate(232.597 546.617)" fill="none" stroke="#fff" stroke-miterlimit="10" stroke-width="2"/>
  </g>
</svg>
