<svg xmlns="http://www.w3.org/2000/svg" width="154" height="45.29" viewBox="0 0 154 45.29">
  <g id="Grupo_813" data-name="Grupo 813" transform="translate(-84 -70)">
    <g id="Grupo_272" data-name="Grupo 272" transform="translate(84 70)">
      <g id="Grupo_271" data-name="Grupo 271">
        <path id="Trazado_380" data-name="Trazado 380" d="M423.684,405.209A12.391,12.391,0,1,0,436.075,417.6,12.391,12.391,0,0,0,423.684,405.209Zm0,22.944A10.554,10.554,0,1,1,434.239,417.6,10.553,10.553,0,0,1,423.686,428.153Z" transform="translate(-402.577 -396.492)" fill="#fff"/>
        <path id="Trazado_381" data-name="Trazado 381" d="M386.257,356.181l-3.767-.452a16.819,16.819,0,0,0-1.675-4.054l2.342-2.977a1.222,1.222,0,0,0-.1-1.577l-3.882-3.884a1.225,1.225,0,0,0-1.577-.1l-2.982,2.345a16.6,16.6,0,0,0-4.046-1.672l-.451-3.767A1.223,1.223,0,0,0,368.941,339H363.45a1.22,1.22,0,0,0-1.18,1.047l-.453,3.767a16.727,16.727,0,0,0-4.049,1.673l-2.98-2.342a1.223,1.223,0,0,0-1.575.095l-3.884,3.885a1.225,1.225,0,0,0-.091,1.577l2.34,2.979a16.688,16.688,0,0,0-1.673,4.053l-3.765.451a1.222,1.222,0,0,0-1.049,1.182v5.491a1.223,1.223,0,0,0,1.049,1.18l3.767.453a16.793,16.793,0,0,0,1.673,4.046l-2.34,2.982a1.226,1.226,0,0,0,.1,1.577l3.877,3.885a1.225,1.225,0,0,0,1.575.1l2.982-2.347a16.617,16.617,0,0,0,4.049,1.673l.453,1.916a1.22,1.22,0,0,0,1.18,1.047h5.491a1.217,1.217,0,0,0,1.18-1.047l.453-1.916a16.757,16.757,0,0,0,4.049-1.673l2.982,2.342a1.223,1.223,0,0,0,1.575-.095l3.882-3.885a1.223,1.223,0,0,0,.095-1.579l-2.344-2.979a16.7,16.7,0,0,0,1.675-4.048l3.766-.453a1.219,1.219,0,0,0,1.049-1.18v-5.491A1.216,1.216,0,0,0,386.257,356.181ZM366.2,374.11a14,14,0,1,1,14-14A14,14,0,0,1,366.2,374.11Z" transform="translate(-345.09 -339)" fill="#fff"/>
      </g>
      <path id="Trazado_382" data-name="Trazado 382" d="M469.965,449.907v7.6h-5.049v.395h5.444v-8Z" transform="translate(-449.14 -435.305)" fill="#fff"/>
      <path id="Rectángulo_569" data-name="Rectángulo 569" d="M1.669,0H6.013A1.669,1.669,0,0,1,7.682,1.669v0A2.778,2.778,0,0,1,4.9,4.447H2.778A2.778,2.778,0,0,1,0,1.669v0A1.669,1.669,0,0,1,1.669,0Z" transform="translate(17.38 40.843)" fill="#fff"/>
    </g>
    <text id="SPPM" transform="translate(131 75)" fill="#fff" font-size="30" font-family="Montserrat-Light, Montserrat" font-weight="300"><tspan x="8.875" y="29">SPPM</tspan></text>
  </g>
</svg>
