<svg width="2750" height="2952" viewBox="0 0 2750 2952" fill="none" xmlns="http://www.w3.org/2000/svg">
<path fill-rule="evenodd" clip-rule="evenodd" d="M1136.82 15.0544C1131.72 23.3444 1121.66 75.272 1114.48 130.471C1093.73 289.546 1084.39 321.14 1058.04 321.361C1044.46 321.462 986.332 343.441 928.892 370.178L824.448 418.814L725.322 339.888C670.792 296.471 604.661 260.943 578.35 260.943C519.946 260.943 260.641 513.777 260.641 570.722C260.641 591.498 296.727 655.288 340.841 712.455L421.021 816.41L366.892 945.156C337.128 1015.95 311.78 1075.93 310.576 1078.44C309.371 1080.95 246.532 1091.77 170.949 1102.46C95.365 1113.18 26.0633 1133.7 16.9315 1148.09C7.81968 1162.48 0.213127 1266.52 0.0324971 1379.28C-0.308693 1616 -1.33226 1614.61 191.38 1636.59L310.816 1650.2L356.957 1763.49C382.326 1825.8 407.514 1886.46 412.913 1898.28C418.311 1910.1 386.26 1965.6 341.684 2021.59C297.109 2077.59 260.641 2140.9 260.641 2162.29C260.641 2204.07 540.718 2488.99 581.762 2488.99C595.168 2488.99 651.485 2452.86 706.938 2408.7C762.412 2364.55 813.369 2328.45 820.213 2328.51C836.59 2328.64 1046.94 2415.19 1076.23 2433.86C1088.77 2441.86 1105.05 2480.52 1112.41 2519.79C1129.27 2609.59 1176.82 2629.5 1374.53 2629.5C1576.59 2629.5 1618.22 2610.96 1634.67 2513.58C1647.36 2438.47 1653.56 2433.11 1788.45 2380.42L1929.02 2325.5L2034.95 2407.26C2093.21 2452.2 2152.32 2488.99 2166.27 2488.99C2205.57 2488.99 2488.41 2205.61 2488.41 2166.25C2488.41 2147.02 2451.92 2085.14 2407.35 2028.71L2326.27 1926.14L2380.5 1787.3L2434.72 1648.44L2562.93 1634.71C2633.44 1627.16 2704.22 1607.89 2720.22 1591.89C2741.72 1570.4 2749.32 1510.94 2749.32 1364.63C2749.32 1182.63 2745.69 1163.95 2704.71 1135.24C2680.18 1118.06 2636.15 1103.99 2606.86 1103.99C2461.14 1103.99 2434.54 1086.29 2385.15 956.336C2359.38 888.511 2335.68 827.731 2332.51 821.288C2329.34 814.845 2363.11 763.86 2407.57 708.019C2452.02 652.157 2488.41 593.525 2488.41 577.688C2488.41 552.798 2187.1 240.87 2163.06 240.87C2158.2 240.87 2101.48 280.333 2037 328.567L1919.79 416.264L1817.75 371.201C1761.64 346.412 1701.29 321.321 1683.64 315.42C1660.93 307.812 1647.74 268.149 1638.49 179.489C1631.28 110.62 1615.27 42.0721 1602.86 27.1381C1586.49 7.38672 1521.2 0 1363.23 0C1243.79 0 1141.92 6.76445 1136.82 15.0544ZM1755.86 541.055C1847.66 585.335 1938.57 651.133 2018.21 730.942C2493.45 1207.24 2308.99 2000.67 1668.91 2233.47C1511.16 2290.86 1237.81 2290.82 1079.92 2233.39C723.656 2103.84 490.202 1796.09 466.399 1424.65C439.726 1008.71 687.992 641.217 1093.29 496.695C1171.36 468.854 1241.08 462.21 1404.63 467.068C1596.14 472.728 1628.19 479.493 1755.86 541.055ZM1164.27 592.923C860.474 678.131 636.954 929.118 581.561 1247.21C563.498 1351.02 565.083 1403.89 589.93 1523.02C644.681 1785.65 782.843 1965.56 1019.67 2082.63C1164.88 2154.41 1180.87 2157.8 1373.48 2157.8C1558.93 2157.8 1586.2 2152.6 1711.2 2093.39C1875.86 2015.38 2017.89 1875.9 2098.29 1713.27C2151.62 1605.4 2152 1584.5 2170.5 1384.5C2157.5 1164 2153.82 1146.56 2091.67 1020.21C2006.81 847.643 1832.72 682.848 1671.26 622.188C1519.59 565.203 1306.87 552.918 1164.27 592.923ZM1614.54 724.036C1751.58 775.302 1920.49 925.585 1983.97 1052.72C2052.75 1190.46 2078.06 1369.27 2048.58 1509.11C2001.21 1733.65 1817.99 1942.18 1600.53 2019.04C1488.22 2058.72 1266.81 2058.32 1148.1 2018.19C887.749 1930.2 682.111 1649.6 682.111 1382.36C682.111 1179.86 784.689 960.31 939.048 832.408C1114.34 687.163 1395.5 642.06 1614.54 724.036Z" fill="#005953"/>
<path d="M1134.69 2796.41C1124.05 2746.59 1130.19 2723.32 1162.49 2691.03C1198.17 2655.34 1228.8 2649.58 1383.14 2649.58C1586.55 2649.58 1625.4 2670.17 1625.4 2777.98C1625.4 2911.28 1436.02 2990.63 1258.06 2931.9C1173.53 2903.99 1152.83 2881.25 1134.69 2796.41Z" fill="#0B4F03"/>
<path d="M1334.39 1415.11L1340.05 1064.26H1383.14L1374.53 1464H1123.84V1419.98L1334.39 1415.11Z" fill="#43425D"/>
</svg>
